<svg width="219" height="48" viewBox="0 0 219 48" fill="none" xmlns="http://www.w3.org/2000/svg">
<g opacity="0.84">
<path d="M19 30.5C25.9036 30.5 31.5 36.0964 31.5 43H26.5C26.5 38.8579 23.1421 35.5 19 35.5C14.8579 35.5 11.5 38.8579 11.5 43H6.5C6.5 36.0964 12.0964 30.5 19 30.5ZM0 11.5C6.90356 11.5 12.5 17.0964 12.5 24C12.5 30.9036 6.90356 36.5 0 36.5V31.5C4.14214 31.5 7.5 28.1421 7.5 24C7.5 19.8579 4.14214 16.5 0 16.5V11.5ZM38 16.5C33.8579 16.5 30.5 19.8579 30.5 24C30.5 28.1421 33.8579 31.5 38 31.5V36.5C31.0964 36.5 25.5 30.9036 25.5 24C25.5 17.0964 31.0964 11.5 38 11.5V16.5ZM11.5 5C11.5 9.14214 14.8579 12.5 19 12.5C23.1421 12.5 26.5 9.14214 26.5 5H31.5C31.5 11.9036 25.9036 17.5 19 17.5C12.0964 17.5 6.5 11.9036 6.5 5H11.5Z" fill="white"/>
</g>
<g opacity="0.84">
<path d="M58.469 33.3481C52.031 33.3481 48 29.0851 48 22.2991C48 15.6001 52.263 11.1921 58.672 11.1921C64.037 11.1921 67.894 14.2661 68.561 19.0801H63.602C62.964 16.9341 61.137 15.7161 58.556 15.7161C55.076 15.7161 52.959 18.1811 52.959 22.2701C52.959 26.3011 55.105 28.8241 58.556 28.8241C61.195 28.8241 63.138 27.5191 63.718 25.4021H68.59C67.836 30.1871 63.834 33.3481 58.469 33.3481Z" fill="white"/>
<path d="M78.4024 23.0649C73.7624 23.0649 70.3984 26.1389 70.3984 30.7209C70.3984 31.5545 70.5098 32.3373 70.7199 33.0601H75.6206C75.1558 32.4467 74.8934 31.6389 74.8934 30.6919C74.8934 28.5169 76.3144 27.0669 78.4024 27.0669C80.4614 27.0669 81.8824 28.5169 81.8824 30.6919C81.8824 31.6389 81.6201 32.4467 81.1576 33.0601H86.0562C86.2661 32.3373 86.3774 31.5545 86.3774 30.7209C86.3774 26.1389 83.0134 23.0649 78.4024 23.0649Z" fill="white"/>
<path d="M104.248 39.9601V18.5001H108.453L108.685 20.2691C109.497 18.9351 111.324 18.0361 113.383 18.0361C117.414 18.0361 120.227 20.8491 120.227 25.5181C120.227 30.1001 117.733 33.4061 113.412 33.4061C111.411 33.4061 109.555 32.6521 108.714 31.5501V39.9601H104.248ZM108.743 25.7501C108.743 27.9251 110.193 29.3751 112.281 29.3751C114.398 29.3751 115.732 27.8961 115.732 25.7501C115.732 23.6041 114.398 22.1251 112.281 22.1251C110.193 22.1251 108.743 23.5751 108.743 25.7501Z" fill="white"/>
<path d="M129.526 33.3771C125.147 33.3771 122.015 30.1871 122.015 25.7211C122.015 21.1971 125.06 18.0361 129.439 18.0361C133.992 18.0361 136.834 21.0231 136.834 25.7501V26.8811L126.307 26.9391C126.568 28.8531 127.641 29.7521 129.613 29.7521C131.295 29.7521 132.484 29.1431 132.803 28.0991H136.892C136.37 31.3181 133.499 33.3771 129.526 33.3771ZM129.468 21.6611C127.699 21.6611 126.713 22.4441 126.365 24.1841H132.397C132.397 22.6471 131.266 21.6611 129.468 21.6611Z" fill="white"/>
<path d="M149.455 18.5001V22.7051H148.034C145.482 22.7051 143.945 23.8361 143.945 26.7071V33.0001H139.479V18.5291H143.684L143.916 20.6751C144.525 19.2541 145.801 18.2971 147.744 18.2971C148.266 18.2971 148.846 18.3551 149.455 18.5001Z" fill="white"/>
<path d="M162.395 18.5001H166.484V33.0001H162.279L162.047 31.1441C161.206 32.2461 159.611 33.4061 157.32 33.4061C152.999 33.4061 150.505 30.1001 150.505 25.5181C150.505 20.8491 153.318 18.0361 157.349 18.0361C159.408 18.0361 161.351 18.9351 162.163 20.2691L162.395 18.5001ZM161.989 25.7501C161.989 23.5751 160.539 22.1251 158.451 22.1251C156.334 22.1251 155 23.6041 155 25.7501C155 27.8961 156.334 29.3751 158.451 29.3751C160.539 29.3751 161.989 27.9251 161.989 25.7501Z" fill="white"/>
<path d="M178.393 29.1141L178.915 32.7101C178.074 33.1161 176.972 33.3481 175.754 33.3481C172.767 33.3481 170.679 31.9851 170.679 27.9251V22.2121H168.475V18.5001H170.679V14.0051H175.145V18.5001H178.364V22.2121H175.145V26.9971C175.145 28.8241 175.87 29.3751 176.914 29.3751C177.349 29.3751 177.871 29.2881 178.393 29.1141Z" fill="white"/>
<path d="M182.974 16.2381C181.553 16.2381 180.422 15.1071 180.422 13.6861C180.422 12.2651 181.553 11.1631 182.974 11.1631C184.366 11.1631 185.497 12.2651 185.497 13.6861C185.497 15.1071 184.366 16.2381 182.974 16.2381ZM180.77 33.0001V18.5001H185.236V33.0001H180.77Z" fill="white"/>
<path d="M192.704 33.0001L187.049 18.5001H191.863L193.632 23.5751C194.357 25.6921 194.937 27.5191 195.053 28.1861C195.227 27.3451 195.865 25.4601 196.59 23.5751L198.533 18.5001H203.173L197.112 33.0001H192.704Z" fill="white"/>
<path d="M211.004 33.3771C206.625 33.3771 203.493 30.1871 203.493 25.7211C203.493 21.1971 206.538 18.0361 210.917 18.0361C215.47 18.0361 218.312 21.0231 218.312 25.7501V26.8811L207.785 26.9391C208.046 28.8531 209.119 29.7521 211.091 29.7521C212.773 29.7521 213.962 29.1431 214.281 28.0991H218.37C217.848 31.3181 214.977 33.3771 211.004 33.3771ZM210.946 21.6611C209.177 21.6611 208.191 22.4441 207.843 24.1841H213.875C213.875 22.6471 212.744 21.6611 210.946 21.6611Z" fill="white"/>
<path d="M86.01 18.5298C85.7944 19.2623 85.68 20.0558 85.68 20.9006C85.68 25.4826 89.044 28.5276 93.684 28.5276C98.295 28.5276 101.659 25.4826 101.659 20.9006C101.659 20.0558 101.545 19.2623 101.329 18.5298H96.4411C96.9024 19.1388 97.164 19.9385 97.164 20.8716C97.164 23.0756 95.743 24.5256 93.684 24.5256C91.596 24.5256 90.175 23.0756 90.175 20.8716C90.175 19.9385 90.4366 19.1388 90.9002 18.5298H86.01Z" fill="white"/>
</g>
</svg>
